<svg width="112" height="115" viewBox="0 0 112 115" fill="none" xmlns="http://www.w3.org/2000/svg">
<path d="M75.337 54.6903C78.5772 54.81 81.5772 56.2506 83.7368 58.6503C83.8565 58.8906 84.0967 59.13 84.337 59.3702L91.297 57.2106C98.1374 51.0908 105.337 42.2106 105.337 31.2906V15.3306C105.337 13.6507 104.017 12.2108 102.337 11.9706C90.697 10.0504 84.337 4.77019 81.0976 1.17019C79.7776 -0.390064 77.2572 -0.390064 75.938 1.17019C72.8183 4.77041 66.4585 10.0504 54.8182 11.8502C53.1383 12.0904 51.8182 13.5302 51.8182 15.2102V31.1702C51.8182 40.4104 56.9778 48.2102 62.7385 54.0902L75.337 54.6903ZM65.7376 29.0103C67.0577 27.6903 69.2172 27.6903 70.6579 29.0103L75.3379 33.6903L86.4975 22.5307C87.8175 21.2107 89.977 21.2107 91.4177 22.5307C92.7377 23.8508 92.7377 26.0103 91.4177 27.451L77.7377 41.0103C77.1375 41.6105 76.1774 41.9704 75.3379 41.9704C74.3778 41.9704 73.5382 41.6105 72.9381 41.0103L65.7376 33.9305C64.4176 32.6105 64.4176 30.3303 65.7376 29.0103Z" fill="#058B8C"/>
<path d="M8.13701 85.1704L0.576794 95.0108C-0.263613 96.0907 -0.0233763 97.7706 1.05643 98.6111L20.6166 113.611C21.6964 114.451 23.3764 114.211 24.2169 113.131L31.7771 103.291L8.73707 85.651C8.49683 85.5305 8.2566 85.2911 8.1369 85.1705L8.13701 85.1704Z" fill="#058B8C"/>
<path d="M110.137 62.1304C108.577 60.4504 106.177 59.8502 104.017 60.4504L85.8968 65.9708V67.2909C85.6566 72.3309 81.9368 76.6509 76.8968 77.6109L75.6965 77.8511C69.0962 79.1712 62.3765 80.0107 55.6565 80.1314L50.136 80.2511C48.4561 80.2511 47.0162 78.931 47.0162 77.2511C47.0162 75.5711 48.3363 74.1313 50.0162 74.1313L55.5367 74.0116C61.8967 73.7713 68.2565 73.0515 74.4967 71.852L75.697 71.6118C77.9772 71.1321 79.657 69.212 79.7768 66.9317C79.8965 65.6117 79.4169 64.2917 78.4568 63.212C77.4967 62.2519 76.2972 61.6517 74.8566 61.532L46.0565 60.3317C42.8163 60.212 39.6965 61.1721 37.0565 62.9717L12.9365 80.2502L37.6565 99.0906L61.8966 101.611C66.097 102.091 70.417 100.891 73.7768 98.2511L109.537 70.771C110.857 69.6912 111.696 68.2506 111.817 66.5706C111.817 64.8898 111.337 63.3304 110.137 62.1299V62.1304Z" fill="#058B8C"/>
</svg>
