<svg width="115" height="80" viewBox="0 0 115 80" fill="none" xmlns="http://www.w3.org/2000/svg">
<path d="M83.2798 40.6252L78.5998 37.745V28.745C78.5998 26.5854 76.9198 24.9045 74.7594 24.9045C72.5998 24.9045 70.9189 26.5845 70.9189 28.745L70.9198 39.9054C70.9198 41.2255 71.6397 42.4258 72.7194 43.1456L79.199 47.1056C79.7992 47.4656 80.519 47.7058 81.2389 47.7058C82.5589 47.7058 83.7593 46.9859 84.4791 45.9061C84.9587 45.0657 85.199 43.9859 84.9587 43.0259C84.8399 42.065 84.1192 41.2254 83.2796 40.6253L83.2798 40.6252Z" fill="#058B8C"/>
<path d="M110.64 31.9853L103.56 30.9055C102.72 28.7459 102.48 28.1457 101.52 25.9853L105.84 20.2255C107.04 18.6652 106.8 16.5057 105.48 15.1855L99.6 9.30526C98.2799 7.98522 96.1204 7.745 94.56 8.94532L88.8002 13.2653C86.6406 12.4249 86.0404 12.1855 83.88 11.2254L82.8002 4.14564C82.5599 2.22545 80.88 0.785645 78.9598 0.785645H70.6795C68.7593 0.785645 67.0793 2.22539 66.8391 4.14564L65.7593 11.2254C63.5997 12.0658 62.9995 12.3052 60.8391 13.2653L55.0793 8.94532C53.519 7.74498 51.3595 7.98522 50.0393 9.30526L44.1591 15.1855C42.839 16.5055 42.5988 18.665 43.7991 20.2255L48.1191 25.9853C47.2787 28.1448 47.0393 28.745 46.0793 30.9055L38.9995 31.9853C37.0793 32.2255 35.6395 33.9055 35.6395 35.8257V44.1059C35.6395 46.0261 37.0792 47.7061 38.9995 47.9463L46.0793 49.0261C46.9197 51.1857 47.1591 51.7859 48.1191 53.9464L43.7991 59.7062C42.5988 61.2664 42.839 63.4259 44.1591 64.7462L50.0393 70.6264C51.3593 71.9464 53.5189 72.1866 55.0793 70.9863L60.8391 66.6663C62.9987 67.5067 63.5989 67.7461 65.7593 68.7062L66.8391 75.786C67.0793 77.7062 68.7593 79.146 70.6795 79.146H78.9598C80.88 79.146 82.56 77.7062 82.8002 75.786L83.88 68.7062C86.0396 67.8658 86.6398 67.6264 88.8002 66.6663L94.56 70.9863C96.1203 72.1866 98.2798 71.9464 99.6 70.6264L105.48 64.7462C106.8 63.4261 107.04 61.2666 105.84 59.7062L101.52 53.9464C102.361 51.7868 102.6 51.1866 103.56 49.0261L110.76 47.9463C112.681 47.7061 114.12 46.0262 114.12 44.1059V35.8257C114 33.7858 112.56 32.2255 110.64 31.9853H110.64ZM74.8798 59.1053C64.1998 59.1053 55.6794 50.4653 55.6794 39.9048C55.6794 29.3444 64.1998 20.7044 74.8798 20.7044C85.5598 20.7044 94.0802 29.3444 94.0802 40.0244C94.0794 50.7044 85.4394 59.1051 74.8798 59.1051V59.1053Z" fill="#058B8C"/>
<path d="M30.7198 17.3452H11.3998C9.11956 17.3452 7.19934 19.1449 7.19934 21.5456C7.19934 23.8258 8.999 25.7461 11.3998 25.7461H30.6002C32.8804 25.7461 34.8006 23.9464 34.8006 21.5456C34.7998 19.2654 33.0001 17.3452 30.72 17.3452H30.7198Z" fill="#058B8C"/>
<path d="M27.4798 39.9053C27.4798 37.625 25.6801 35.7048 23.2793 35.7048H4.20043C1.92021 35.7048 0 37.5045 0 39.9053C0 42.305 1.79966 44.1057 4.20043 44.1057H23.4008C25.6802 44.1057 27.4798 42.1855 27.4798 39.9053Z" fill="#058B8C"/>
<path d="M30.7198 54.0652H11.3998C9.11956 54.0652 7.19934 55.8649 7.19934 58.2656C7.19934 60.5459 8.999 62.4661 11.3998 62.4661H30.6002C32.8804 62.4661 34.8006 60.6664 34.8006 58.2656C34.7998 55.9854 33.0001 54.0652 30.72 54.0652H30.7198Z" fill="#058B8C"/>
</svg>
