<svg width="92" height="92" viewBox="0 0 92 92" fill="none" xmlns="http://www.w3.org/2000/svg">
<path d="M4.67711 50.2772H10.1975L2.99711 57.4776C1.31715 59.1576 1.31715 62.0378 2.99711 63.7178C4.67707 65.3978 7.55732 65.3978 9.23732 63.7178L22.6771 50.278H35.3969L17.6371 68.0378C15.9572 69.7178 15.9572 72.598 17.6371 74.278C19.3171 75.958 22.1973 75.958 23.8773 74.278L41.6371 56.5182V69.238L28.1973 82.6778C26.5174 84.3578 26.5174 87.238 28.1973 88.918C29.8773 90.598 32.7575 90.598 34.4375 88.918L41.638 81.7176V87.238C41.638 89.6378 43.5582 91.558 45.958 91.558C48.3577 91.558 50.278 89.6378 50.278 87.238V81.7176L57.4784 88.918C59.1583 90.598 61.7984 90.598 63.7186 88.918C65.3986 87.2381 65.3986 84.3578 63.7186 82.6778L50.2788 69.238V58.4385L66.1193 74.2789C67.7992 75.9588 70.4392 75.9588 72.3595 74.2789C74.0394 72.5989 74.0394 69.9589 72.3595 68.0387L54.5997 50.2789H69.4799L82.9197 63.7187C84.5996 65.3986 87.4799 65.3986 89.1599 63.7187C90.8398 62.0387 90.8398 59.3987 89.1599 57.4785L81.9595 50.278H87.4799C89.8797 50.278 91.7999 48.3578 91.7999 45.958C91.7999 43.5582 89.8797 41.638 87.4799 41.638H81.9595L89.1599 34.4376C90.8398 32.7576 90.8398 29.8774 89.1599 28.1974C87.4799 26.5174 84.5997 26.5174 82.9197 28.1974L69.4799 41.6372H56.7601L72.3603 26.037C74.0403 24.357 74.0403 21.4767 72.3603 19.7967C70.6804 18.1168 67.8001 18.1168 66.1201 19.7967L50.2797 35.6372V22.6772L63.7195 9.23739C65.3994 7.55744 65.3994 4.91739 63.7195 2.99718C62.0395 1.31722 59.1593 1.31722 57.4793 2.99718L50.2788 10.1976L50.2771 4.67718C50.2771 2.27739 48.357 0.357178 45.9571 0.357178C43.5573 0.357178 41.6371 2.27737 41.6371 4.67718V10.1976L34.4367 2.99718C32.7568 1.31722 30.1167 1.31722 28.1965 2.99718C26.5165 4.67713 26.5165 7.55739 28.1965 9.23739L41.6363 22.6772V37.5574L23.8765 19.7976C22.1965 18.1176 19.5565 18.1176 17.6363 19.7976C15.9563 21.4776 15.9563 24.1176 17.6363 26.0378L33.2365 41.638H22.4369L8.99715 28.1982C7.55741 26.5166 4.91736 26.5166 3.23736 28.1966C1.55741 29.8765 1.55741 32.5166 3.23736 34.4368L10.4378 41.6372H4.67715C2.27736 41.6372 0.357147 43.5574 0.357147 45.9572C0.357147 48.357 2.27734 50.2772 4.67715 50.2772L4.67711 50.2772Z" fill="#058B8C"/>
</svg>
