<svg width="12" height="12" viewBox="0 0 12 12" fill="none" xmlns="http://www.w3.org/2000/svg">
<path fill-rule="evenodd" clip-rule="evenodd" d="M6.32867 0.719632L7.02909 1.5191L8.07655 1.07475C8.24626 1.00325 8.4417 1.09531 8.49589 1.27056L8.81547 2.30099L9.95156 2.3211C10.1352 2.324 10.2789 2.4871 10.2563 2.66951L10.1299 3.74198L11.1599 4.22268C11.3157 4.29571 11.3832 4.48136 11.3102 4.6374C11.1698 4.92826 10.9156 5.3033 10.7436 5.59198L11.4896 6.45097C11.61 6.58997 11.5832 6.8049 11.4333 6.91047L10.552 7.53325L10.884 8.62086C10.9378 8.79818 10.8262 8.98158 10.6453 9.01728L9.58845 9.22777L9.44973 10.3558C9.42608 10.549 9.23244 10.6738 9.04778 10.6172L8.01735 10.3835L7.43192 11.3572C7.33696 11.5156 7.12494 11.5574 6.97731 11.4472L6.11181 10.8012L5.18068 11.4527C5.02818 11.5592 4.8206 11.5095 4.72963 11.3485L4.20309 10.4079L3.08586 10.6248C2.89594 10.6611 2.72151 10.519 2.7149 10.3274L2.61822 9.27174L1.51096 9.01585C1.32974 8.97426 1.22634 8.78607 1.2848 8.61101L1.63202 7.58918L0.724372 6.90461C0.567886 6.78663 0.5581 6.55629 0.701175 6.42481L1.41674 5.65126L0.865823 4.65671C0.775485 4.49425 0.846523 4.29091 1.01633 4.21788L2.00635 3.79274L1.90768 2.65964C1.89082 2.46419 2.05773 2.30246 2.25073 2.32121L3.30199 2.33543L3.67251 1.26032C3.7353 1.07774 3.94544 0.996278 4.11496 1.08544L5.07904 1.53035L5.85432 0.699547C5.98579 0.558286 6.21015 0.56961 6.32875 0.719301L6.32867 0.719632ZM3.5233 6.17357C3.10875 5.75903 3.73913 5.12846 4.15387 5.543L5.55036 6.93968L7.99596 4.22895C8.38703 3.79429 9.04903 4.38978 8.65787 4.82473L5.91281 7.8674C5.74635 8.07209 5.43872 8.08876 5.25152 7.90147L3.52348 6.17362L3.5233 6.17357Z" fill="#058B8C"/>
</svg>
