<svg width="24" height="24" viewBox="0 0 24 24" fill="none" xmlns="http://www.w3.org/2000/svg">
<path d="M16.2961 6.49949C16.7892 6.00636 17.5887 6.00636 18.0819 6.49949C18.575 6.99262 18.575 7.79215 18.0819 8.28528L8.26003 18.1071C7.7669 18.6002 6.96738 18.6002 6.47425 18.1071C5.98112 17.614 5.98112 16.8144 6.47425 16.3213L16.2961 6.49949Z" fill="white"/>
<path d="M16.2961 6.49949C16.7892 6.00636 17.5887 6.00636 18.0819 6.49949C18.575 6.99262 18.575 7.79215 18.0819 8.28528L8.26003 18.1071C7.7669 18.6002 6.96738 18.6002 6.47425 18.1071C5.98112 17.614 5.98112 16.8144 6.47425 16.3213L16.2961 6.49949Z" fill="white"/>
<path d="M16.2961 6.49949C16.7892 6.00636 17.5887 6.00636 18.0819 6.49949C18.575 6.99262 18.575 7.79215 18.0819 8.28528L8.26003 18.1071C7.7669 18.6002 6.96738 18.6002 6.47425 18.1071C5.98112 17.614 5.98112 16.8144 6.47425 16.3213L16.2961 6.49949Z" fill="white"/>
<path d="M16.2961 6.49949C16.7892 6.00636 17.5887 6.00636 18.0819 6.49949C18.575 6.99262 18.575 7.79215 18.0819 8.28528L8.26003 18.1071C7.7669 18.6002 6.96738 18.6002 6.47425 18.1071C5.98112 17.614 5.98112 16.8144 6.47425 16.3213L16.2961 6.49949Z" fill="white"/>
<path d="M16.2961 6.49949C16.7892 6.00636 17.5887 6.00636 18.0819 6.49949C18.575 6.99262 18.575 7.79215 18.0819 8.28528L8.26003 18.1071C7.7669 18.6002 6.96738 18.6002 6.47425 18.1071C5.98112 17.614 5.98112 16.8144 6.47425 16.3213L16.2961 6.49949Z" fill="white"/>
<path d="M16.2961 6.49949C16.7892 6.00636 17.5887 6.00636 18.0819 6.49949C18.575 6.99262 18.575 7.79215 18.0819 8.28528L8.26003 18.1071C7.7669 18.6002 6.96738 18.6002 6.47425 18.1071C5.98112 17.614 5.98112 16.8144 6.47425 16.3213L16.2961 6.49949Z" fill="white"/>
<path d="M6.71711 8.28527C6.22398 7.79214 6.22398 6.99262 6.71711 6.49949C7.21024 6.00636 8.00977 6.00636 8.5029 6.49949L18.3247 16.3213C18.8179 16.8144 18.8178 17.614 18.3247 18.1071C17.8316 18.6002 17.0321 18.6002 16.5389 18.1071L6.71711 8.28527Z" fill="white"/>
<path d="M6.71711 8.28527C6.22398 7.79214 6.22398 6.99262 6.71711 6.49949C7.21024 6.00636 8.00977 6.00636 8.5029 6.49949L18.3247 16.3213C18.8179 16.8144 18.8178 17.614 18.3247 18.1071C17.8316 18.6002 17.0321 18.6002 16.5389 18.1071L6.71711 8.28527Z" fill="white"/>
<path d="M6.71711 8.28527C6.22398 7.79214 6.22398 6.99262 6.71711 6.49949C7.21024 6.00636 8.00977 6.00636 8.5029 6.49949L18.3247 16.3213C18.8179 16.8144 18.8178 17.614 18.3247 18.1071C17.8316 18.6002 17.0321 18.6002 16.5389 18.1071L6.71711 8.28527Z" fill="white"/>
<path d="M6.71711 8.28527C6.22398 7.79214 6.22398 6.99262 6.71711 6.49949C7.21024 6.00636 8.00977 6.00636 8.5029 6.49949L18.3247 16.3213C18.8179 16.8144 18.8178 17.614 18.3247 18.1071C17.8316 18.6002 17.0321 18.6002 16.5389 18.1071L6.71711 8.28527Z" fill="white"/>
<path d="M6.71711 8.28527C6.22398 7.79214 6.22398 6.99262 6.71711 6.49949C7.21024 6.00636 8.00977 6.00636 8.5029 6.49949L18.3247 16.3213C18.8179 16.8144 18.8178 17.614 18.3247 18.1071C17.8316 18.6002 17.0321 18.6002 16.5389 18.1071L6.71711 8.28527Z" fill="white"/>
<path d="M6.71711 8.28527C6.22398 7.79214 6.22398 6.99262 6.71711 6.49949C7.21024 6.00636 8.00977 6.00636 8.5029 6.49949L18.3247 16.3213C18.8179 16.8144 18.8178 17.614 18.3247 18.1071C17.8316 18.6002 17.0321 18.6002 16.5389 18.1071L6.71711 8.28527Z" fill="white"/>
</svg>
