<svg width="30" height="30" viewBox="0 0 30 30" fill="none" xmlns="http://www.w3.org/2000/svg">
<path d="M6.67962 5.63617L8.60868 3.70711C8.99921 3.31658 9.63237 3.31658 10.0229 3.70711L13.6613 7.34552C14.0518 7.73605 14.0518 8.36921 13.6613 8.75974L11.2111 11.2099C10.8336 11.5875 10.74 12.1642 10.9788 12.6418C12.3591 15.4024 14.5976 17.6409 17.3582 19.0212C17.8358 19.26 18.4125 19.1664 18.7901 18.7889L21.2403 16.3387C21.6308 15.9482 22.264 15.9482 22.6545 16.3387L26.2929 19.9771C26.6834 20.3676 26.6834 21.0008 26.2929 21.3913L24.3638 23.3204C22.2525 25.4317 18.9099 25.6693 16.5212 23.8777L13.2075 21.3925C11.464 20.0848 9.91517 18.536 8.60752 16.7925L6.12226 13.4788C4.33072 11.0901 4.56827 7.74752 6.67962 5.63617Z" fill="white"/>
</svg>
