<svg width="86" height="115" viewBox="0 0 86 115" fill="none" xmlns="http://www.w3.org/2000/svg">
<path d="M84.314 81.9976L58.514 33.2776C57.5539 31.3574 55.6338 30.1578 53.474 29.9176L34.3942 28.1179C34.2745 23.6781 32.9544 18.8777 30.5538 14.3183C27.9138 9.27833 24.1938 5.19855 20.2338 2.67833C15.5538 -0.321667 10.8738 -0.801239 7.03333 1.23859C3.1929 3.27842 1.03333 7.4788 0.793117 12.9984C0.673419 17.7979 1.99346 23.0782 4.63354 28.1182C7.15397 32.7982 10.3933 36.5179 13.8738 39.0384L4.63354 55.8379C3.55374 57.7581 3.55374 60.0384 4.63354 61.9577L30.5535 110.678C32.2335 113.798 36.074 114.998 39.1935 113.318L81.6735 90.6377C84.794 88.9578 85.9935 85.1173 84.3135 81.9977L84.314 81.9976ZM11.474 24.3976C9.43408 20.6778 8.35419 16.598 8.47397 13.238C8.59367 10.7176 9.31438 8.7982 10.5139 8.19799C10.8738 7.95775 11.3534 7.83722 11.8339 7.83722C12.9137 7.83722 14.3543 8.31685 15.9137 9.27696C18.7939 11.0766 21.5537 14.1972 23.5937 18.0367C25.2737 21.1565 26.2337 24.3967 26.4739 27.3967L24.794 27.277C22.2735 27.0368 19.754 28.3569 18.5537 30.637L17.7133 32.1973C15.5538 30.3976 13.2735 27.8782 11.474 24.3977V24.3976ZM57.314 89.1976C57.5542 89.6772 57.4337 90.2774 56.954 90.5176L52.7536 92.6772C52.274 92.9174 51.6738 92.7969 51.4336 92.3172L49.1534 88.1168C44.7136 90.1567 39.5531 88.5964 36.9131 84.6372C36.5532 84.1576 36.7934 83.5574 37.2731 83.3172L41.4735 81.037C41.8334 80.7967 42.3139 80.9173 42.5533 81.2772C43.5134 82.4776 45.1933 82.8375 46.6331 82.1176L50.3529 80.1974C52.5125 78.9971 53.7129 76.357 52.7527 74.0776C51.6729 71.4376 48.5522 70.3579 46.1525 71.6779L43.3927 73.1176C38.2331 75.8774 31.5124 74.5573 28.2729 69.638C24.7933 64.4785 26.233 57.638 31.0327 54.1585L28.9936 49.8376C28.7534 49.358 28.8739 48.7578 29.3535 48.5176L33.554 46.358C34.0336 46.1178 34.6338 46.2383 34.874 46.7179L37.1542 50.9184C41.594 48.8785 46.7544 50.4387 49.3944 54.3979C49.6347 54.8776 49.5141 55.4777 49.0345 55.718L44.8341 57.9982C44.4741 58.2384 43.9937 58.1179 43.7543 57.7579C42.7942 56.5576 41.1143 56.1977 39.6745 56.9175L35.9547 58.8377C33.7951 60.0381 32.5947 62.5575 33.5549 64.9575C34.6347 67.5975 37.7553 68.6773 40.1551 67.3573L43.2749 65.6773C49.1551 62.5576 56.4753 65.0772 59.1153 71.4371C61.1552 76.2367 59.235 81.7571 55.1553 84.8769L57.314 89.1976Z" fill="#058B8C"/>
</svg>
