<svg width="106" height="108" viewBox="0 0 106 108" fill="none" xmlns="http://www.w3.org/2000/svg">
<path d="M56.4608 78.9388V29.4152C56.4608 28.8452 55.9996 28.3848 55.4313 28.3848C41.2089 28.3848 29.6377 39.9537 29.6377 54.1784C29.6377 68.4007 41.2091 79.972 55.4313 79.972C56.0004 79.9694 56.4608 79.5074 56.4608 78.939V78.9388Z" fill="#058B8C"/>
<path d="M82.5906 53.2331C82.1068 41.0649 73.0541 30.7245 61.0656 28.6459C60.5868 28.5597 60.1139 28.8267 59.9339 29.2796C59.7531 29.7316 59.9139 30.2505 60.319 30.5201C66.9769 34.9532 71.3455 43.6442 71.7271 53.2001C72.1499 63.7545 67.6791 73.4861 60.3423 77.9908C59.9196 78.2511 59.7422 78.7709 59.918 79.233C60.072 79.6432 60.4595 79.9035 60.8831 79.9035C60.9417 79.9035 61.0019 79.8984 61.0597 79.8867C73.85 77.677 83.1054 66.2185 82.589 53.2317L82.5906 53.2331Z" fill="#058B8C"/>
<path d="M55.4429 22.4638C56.9572 22.4638 58.186 21.2317 58.186 19.7167V3.17573C58.186 1.6615 56.9572 0.428589 55.4429 0.428589C53.9287 0.428589 52.6958 1.66073 52.6958 3.17573V19.7175C52.6966 21.2317 53.9288 22.4638 55.4429 22.4638Z" fill="#058B8C"/>
<path d="M29.1395 31.6674C29.6577 32.1872 30.3465 32.4726 31.0823 32.4726C31.8181 32.4726 32.5078 32.1855 33.0243 31.6674C33.5424 31.1476 33.827 30.4587 33.827 29.7246C33.827 28.9913 33.5416 28.3016 33.0226 27.7818L21.5641 16.3267C20.5287 15.2896 18.719 15.2888 17.6793 16.3267C16.6104 17.3982 16.6104 19.1392 17.6818 20.2089L29.1395 31.6674Z" fill="#058B8C"/>
<path d="M55.4494 85.4724C53.936 85.4724 52.7046 86.7045 52.7046 88.2195V104.761C52.7046 106.276 53.9359 107.508 55.4494 107.508C56.9636 107.508 58.1948 106.276 58.1948 104.761V88.2186C58.1948 86.7044 56.9627 85.4724 55.4494 85.4724Z" fill="#058B8C"/>
<path d="M31.087 75.4631C30.3529 75.4631 29.6623 75.7511 29.145 76.2717L17.6799 87.7259C16.6093 88.7948 16.6093 90.5358 17.6799 91.6089C18.717 92.6469 20.5284 92.6469 21.5647 91.6089L33.0281 80.1547C33.5479 79.6341 33.8333 78.9477 33.8333 78.2145C33.8333 77.4787 33.5479 76.789 33.0306 76.2717C32.5133 75.751 31.8227 75.4631 31.087 75.4631L31.087 75.4631Z" fill="#058B8C"/>
<path d="M23.8143 54.0902C23.8143 52.5768 22.5847 51.3431 21.0689 51.3431H3.24714C1.73292 51.3431 0.5 52.5752 0.5 54.0902C0.5 55.607 1.73214 56.8382 3.24714 56.8382H21.0697C22.5839 56.8382 23.8145 55.6069 23.8145 54.0902H23.8143Z" fill="#058B8C"/>
<path d="M89.0578 22.421C85.6785 21.5086 85.0558 20.736 84.2942 16.5122C84.2314 16.1682 83.9326 15.9171 83.5827 15.9171C83.232 15.9171 82.9323 16.1682 82.8712 16.5122C82.102 20.7377 81.4801 21.5111 78.1 22.421C77.7844 22.5063 77.5659 22.7943 77.5659 23.1207C77.5659 23.4472 77.7844 23.7351 78.0991 23.8188C81.4842 24.7354 82.1086 25.5097 82.8695 29.7301C82.9323 30.0742 83.232 30.3253 83.5835 30.3253C83.9343 30.3253 84.2331 30.0741 84.295 29.7293C85.0526 25.5121 85.6753 24.7388 89.0603 23.8197C89.3759 23.7343 89.5944 23.4481 89.5944 23.1199C89.5935 22.7935 89.3751 22.5064 89.0578 22.421L89.0578 22.421Z" fill="#058B8C"/>
<path d="M89.0578 85.4124C85.6794 84.4983 85.0558 83.7249 84.2942 79.5011C84.2314 79.157 83.9326 78.9059 83.5827 78.9059C83.232 78.9059 82.9323 79.1571 82.8712 79.5011C82.102 83.7249 81.4801 84.4982 78.1 85.4124C77.7844 85.4936 77.5659 85.7832 77.5659 86.108C77.5659 86.4352 77.7844 86.7249 78.1 86.8086C81.4842 87.7226 82.1077 88.4961 82.8687 92.7199C82.9314 93.0622 83.2311 93.3125 83.5827 93.3125C83.9334 93.3125 84.2322 93.0614 84.2942 92.7174C85.0517 88.5002 85.6744 87.7277 89.0594 86.8086C89.375 86.7224 89.5935 86.4353 89.5935 86.108C89.5935 85.7833 89.375 85.4936 89.0578 85.4124L89.0578 85.4124Z" fill="#058B8C"/>
<path d="M104.836 53.0145C100.286 51.6577 99.4008 50.5042 98.5169 44.7829C98.4625 44.4372 98.1712 44.1778 97.8213 44.1685C97.4689 44.1552 97.1651 44.4029 97.0939 44.7444C95.9153 50.4172 94.9703 51.5229 90.3572 52.6436C90.0408 52.7207 89.8148 53.0011 89.8039 53.3292C89.7964 53.6556 90.009 53.9486 90.3212 54.0407C94.8797 55.3975 95.7654 56.551 96.6469 62.2748C96.6997 62.6214 96.9952 62.88 97.345 62.8892H97.3635C97.7058 62.8892 98.0021 62.6481 98.0724 62.3108C99.2376 56.6507 100.182 55.5415 104.802 54.4116C105.121 54.3338 105.346 54.0525 105.354 53.7261C105.361 53.398 105.149 53.1083 104.836 53.0146L104.836 53.0145Z" fill="#058B8C"/>
</svg>
