<svg width="120" height="70" viewBox="0 0 120 70" fill="none" xmlns="http://www.w3.org/2000/svg">
<path d="M74.5237 15.1192C74.5237 23.3113 67.5093 29.9527 58.8566 29.9527C50.204 29.9527 43.1904 23.3116 43.1904 15.1192C43.1904 6.92706 50.204 0.285706 58.8566 0.285706C67.5093 0.285706 74.5237 6.92685 74.5237 15.1192Z" fill="#058B8C"/>
<path d="M35.691 14.6178C35.691 20.7851 30.4678 25.7848 24.0242 25.7848C17.5806 25.7848 12.3574 20.7851 12.3574 14.6178C12.3574 8.45125 17.5806 3.45154 24.0242 3.45154C30.4678 3.45154 35.691 8.45125 35.691 14.6178Z" fill="#058B8C"/>
<path d="M107.691 14.6178C107.691 20.7851 102.468 25.7848 96.0242 25.7848C89.5806 25.7848 84.3574 20.7851 84.3574 14.6178C84.3574 8.45125 89.5806 3.45154 96.0242 3.45154C102.468 3.45154 107.691 8.45125 107.691 14.6178Z" fill="#058B8C"/>
<path d="M36.1902 39.6185C37.5236 38.6182 37.357 36.6185 36.0236 35.7847C32.5239 33.6185 28.3571 32.4515 24.0236 32.4515C11.8571 32.2849 1.69075 41.7856 0.857178 53.7855C0.857178 54.7858 1.52348 55.4521 2.35718 55.4521H22.3569C23.3572 55.4521 24.0235 54.9524 24.5231 54.1187C27.1899 48.4519 31.1902 43.4522 36.1899 39.6184L36.1902 39.6185Z" fill="#058B8C"/>
<path d="M96.0229 32.2835C91.0232 32.2835 86.3567 33.9501 82.5229 36.617C81.1895 37.4507 81.1895 39.4505 82.3563 40.2832C86.8563 43.9494 90.6901 48.617 93.1895 54.1164C93.5227 54.9501 94.3564 55.4499 95.3558 55.4499H117.689C118.689 55.4499 119.355 54.6162 119.189 53.7833C118.356 41.7842 108.189 32.284 96.0222 32.284L96.0229 32.2835Z" fill="#058B8C"/>
<path d="M58.8553 38.6178C42.5218 38.6178 29.0224 51.284 27.8546 67.4499C27.688 68.6167 28.6883 69.6161 30.0208 69.6161H87.8544C89.0212 69.6161 90.0206 68.6158 90.0206 67.4499C88.688 51.4505 75.1879 38.6178 58.8549 38.6178H58.8553Z" fill="#058B8C"/>
</svg>
